# xmcd
#
# Track frame offsets:
#	150
#	17588
#	32315
#	49632
#	63619
#	81002
#	95733
#	111261
#	130938
#	148605
#	169702
#	184711
#	200858
#	215815
#	229101
#	245605
#	263324
#	277934
#
# Disc length: 3817 seconds
#
# Revision: 0
# Processed by: cddbd v1.5.2PL0 Copyright (c) Steve Scherf et al.
# Submitted via: EasyCDDAExtractor 16.0.6.1
#
DISCID=fd0ee712
DTITLE=Λέκκας Βασίλης - Τραγούδια για την φαντασία-Β. Λέκκας
DYEAR=1999
DGENRE=Έντεχνη νεώτερη
TTITLE0=Κοίτα με στα μάτια
TTITLE1=Τι είναι αυτό που σε φοβίζει
TTITLE2=Σημαδεμένος απ' την αγάπη
TTITLE3=Θα σε βρω όπου και νά 'σαι
TTITLE4=Ένα κόκκινο σημάδι
TTITLE5=Η νύχτα
TTITLE6=Ο μάγος
TTITLE7=Δίας ουράνιος
TTITLE8=Ναυαγός
TTITLE9=Ελλάδα, Έλλάδα
TTITLE10=Οι πρώτες μας αλήθειες
TTITLE11=Ασίκικο πουλάκι
TTITLE12=Ο τίγρης του Εζναπούρ
TTITLE13=Το τηλέφωνο
TTITLE14=Τραγούδι για την φαντασία
TTITLE15=Η συνάντηση
TTITLE16=Πώς να ξεχάσω
TTITLE17=Ένας αθέατος σφυγμός
EXTD=
EXTT0=
EXTT1=
EXTT2=
EXTT3=
EXTT4=
EXTT5=
EXTT6=
EXTT7=
EXTT8=
EXTT9=
EXTT10=
EXTT11=
EXTT12=
EXTT13=
EXTT14=
EXTT15=
EXTT16=
EXTT17=
PLAYORDER=
